<svg width="21" height="20" viewBox="0 0 21 20" fill="none" xmlns="http://www.w3.org/2000/svg">
<g id="vuesax/bold/calendar-tick">
<g id="calendar-tick">
<path id="Vector" d="M14.4583 2.9665V1.6665C14.4583 1.32484 14.175 1.0415 13.8333 1.0415C13.4917 1.0415 13.2083 1.32484 13.2083 1.6665V2.9165H7.79165V1.6665C7.79165 1.32484 7.50832 1.0415 7.16665 1.0415C6.82499 1.0415 6.54165 1.32484 6.54165 1.6665V2.9665C4.29165 3.17484 3.19999 4.5165 3.03332 6.50817C3.01665 6.74984 3.21665 6.94984 3.44999 6.94984H17.55C17.7917 6.94984 17.9917 6.7415 17.9667 6.50817C17.8 4.5165 16.7083 3.17484 14.4583 2.9665Z" fill="#7CB4E2"/>
<path id="Vector_2" d="M16.3333 12.5C14.4917 12.5 13 13.9917 13 15.8333C13 16.4583 13.175 17.05 13.4833 17.55C14.0583 18.5167 15.1167 19.1667 16.3333 19.1667C17.55 19.1667 18.6083 18.5167 19.1833 17.55C19.4917 17.05 19.6667 16.4583 19.6667 15.8333C19.6667 13.9917 18.175 12.5 16.3333 12.5ZM18.0583 15.475L16.2833 17.1167C16.1667 17.225 16.0083 17.2833 15.8583 17.2833C15.7 17.2833 15.5417 17.225 15.4167 17.1L14.5917 16.275C14.35 16.0333 14.35 15.6333 14.5917 15.3917C14.8333 15.15 15.2333 15.15 15.475 15.3917L15.875 15.7917L17.2083 14.5583C17.4583 14.325 17.8583 14.3417 18.0917 14.5917C18.325 14.8417 18.3083 15.2333 18.0583 15.475Z" fill="#7CB4E2"/>
<path id="Vector_3" d="M17.1667 8.2002H3.83333C3.375 8.2002 3 8.5752 3 9.03353V14.1669C3 16.6669 4.25 18.3335 7.16667 18.3335H11.275C11.85 18.3335 12.25 17.7752 12.0667 17.2335C11.9 16.7502 11.7583 16.2169 11.7583 15.8335C11.7583 13.3085 13.8167 11.2502 16.3417 11.2502C16.5833 11.2502 16.825 11.2669 17.0583 11.3085C17.5583 11.3835 18.0083 10.9919 18.0083 10.4919V9.04186C18 8.5752 17.625 8.2002 17.1667 8.2002ZM8.175 15.1752C8.01667 15.3252 7.8 15.4169 7.58333 15.4169C7.36667 15.4169 7.15 15.3252 6.99167 15.1752C6.84167 15.0169 6.75 14.8002 6.75 14.5835C6.75 14.3669 6.84167 14.1502 6.99167 13.9919C7.075 13.9169 7.15833 13.8585 7.26667 13.8169C7.575 13.6835 7.94167 13.7585 8.175 13.9919C8.325 14.1502 8.41667 14.3669 8.41667 14.5835C8.41667 14.8002 8.325 15.0169 8.175 15.1752ZM8.175 12.2585C8.13333 12.2919 8.09167 12.3252 8.05 12.3585C8 12.3919 7.95 12.4169 7.9 12.4335C7.85 12.4585 7.8 12.4752 7.75 12.4835C7.69167 12.4919 7.63333 12.5002 7.58333 12.5002C7.36667 12.5002 7.15 12.4085 6.99167 12.2585C6.84167 12.1002 6.75 11.8835 6.75 11.6669C6.75 11.4502 6.84167 11.2335 6.99167 11.0752C7.18333 10.8835 7.475 10.7919 7.75 10.8502C7.8 10.8585 7.85 10.8752 7.9 10.9002C7.95 10.9169 8 10.9419 8.05 10.9752C8.09167 11.0085 8.13333 11.0419 8.175 11.0752C8.325 11.2335 8.41667 11.4502 8.41667 11.6669C8.41667 11.8835 8.325 12.1002 8.175 12.2585ZM11.0917 12.2585C10.9333 12.4085 10.7167 12.5002 10.5 12.5002C10.2833 12.5002 10.0667 12.4085 9.90833 12.2585C9.75833 12.1002 9.66667 11.8835 9.66667 11.6669C9.66667 11.4502 9.75833 11.2335 9.90833 11.0752C10.225 10.7669 10.7833 10.7669 11.0917 11.0752C11.2417 11.2335 11.3333 11.4502 11.3333 11.6669C11.3333 11.8835 11.2417 12.1002 11.0917 12.2585Z" fill="#7CB4E2"/>
</g>
</g>
</svg>
