<svg width="20" height="20" viewBox="0 0 20 20" fill="none" xmlns="http://www.w3.org/2000/svg">
<g id="vuesax/bold/clock">
<g id="clock">
<path id="Vector" d="M9.99996 1.6665C5.40829 1.6665 1.66663 5.40817 1.66663 9.99984C1.66663 14.5915 5.40829 18.3332 9.99996 18.3332C14.5916 18.3332 18.3333 14.5915 18.3333 9.99984C18.3333 5.40817 14.5916 1.6665 9.99996 1.6665ZM13.625 12.9748C13.5083 13.1748 13.3 13.2832 13.0833 13.2832C12.975 13.2832 12.8666 13.2582 12.7666 13.1915L10.1833 11.6498C9.54163 11.2665 9.06663 10.4248 9.06663 9.68317V6.2665C9.06663 5.92484 9.34996 5.6415 9.69163 5.6415C10.0333 5.6415 10.3166 5.92484 10.3166 6.2665V9.68317C10.3166 9.98317 10.5666 10.4248 10.825 10.5748L13.4083 12.1165C13.7083 12.2915 13.8083 12.6748 13.625 12.9748Z" fill="#7CB4E2"/>
</g>
</g>
</svg>
