<svg width="20" height="18" viewBox="0 0 20 18" fill="none" xmlns="http://www.w3.org/2000/svg">
<g id="emoji">
<g id="new-reaction">
<g id="emoji_2">
<g id="Time-Circle">
<path id="Path" d="M16.5152 9.38453C16.5152 13.6684 13.0423 17.1421 8.75758 17.1421C4.47372 17.1421 1 13.6684 1 9.38453C1 5.09984 4.47372 1.62695 8.75758 1.62695C9.54763 1.62695 10.3101 1.74503 11.0282 1.9645" stroke="#98A2B3" stroke-width="1.5" stroke-linecap="round" stroke-linejoin="round"/>
<g id="Group 36658">
<path id="Path_2" d="M9.38674 13.9053L9.38658 13.9053C8.97352 14.0087 8.54139 14.0087 8.12833 13.9053L8.12819 13.9053L7.87519 13.8421C7.87516 13.8421 7.87514 13.8421 7.87512 13.8421C6.71599 13.5523 5.90283 12.5108 5.90283 11.3159C5.90283 11.0778 6.09587 10.8848 6.334 10.8848H11.181C11.419 10.8848 11.6121 11.0778 11.6121 11.3159C11.6121 12.5108 10.7989 13.5523 9.63986 13.8421C9.63983 13.8421 9.6398 13.8421 9.63977 13.8421L9.38674 13.9053Z" fill="#98A2B3" stroke="#98A2B3"/>
<g id="Group 36657">
<path id="Rectangle" d="M5.68248 5.85254H5.68249C6.07791 5.85254 6.30069 6.12746 6.30069 6.35254V7.35254C6.30069 7.57761 6.07791 7.85254 5.68249 7.85254H5.68248C5.28705 7.85254 5.06427 7.57761 5.06427 7.35254V6.35254C5.06427 6.12746 5.28705 5.85254 5.68248 5.85254Z" fill="#98A2B3" stroke="#98A2B3"/>
<path id="Rectangle_2" d="M11.553 5.85254H11.553C11.9484 5.85254 12.1712 6.12746 12.1712 6.35254V7.35254C12.1712 7.57761 11.9484 7.85254 11.553 7.85254H11.553C11.1575 7.85254 10.9348 7.57761 10.9348 7.35254V6.35254C10.9348 6.12746 11.1575 5.85254 11.553 5.85254Z" fill="#98A2B3" stroke="#98A2B3"/>
</g>
</g>
</g>
<g id="add">
<g id="Path_3">
<path fill-rule="evenodd" clip-rule="evenodd" d="M16.0303 1.14209V5.99057V1.14209Z" fill="#98A2B3"/>
<path d="M16.0303 1.14209V5.99057" stroke="#98A2B3" stroke-width="1.5" stroke-linecap="round" stroke-linejoin="round"/>
</g>
<g id="Path_4">
<path fill-rule="evenodd" clip-rule="evenodd" d="M13.6061 3.56623L18.4546 3.56623L13.6061 3.56623Z" fill="#98A2B3"/>
<path d="M13.6061 3.56623L18.4546 3.56623" stroke="#98A2B3" stroke-width="1.5" stroke-linecap="round" stroke-linejoin="round"/>
</g>
</g>
</g>
</g>
</g>
</svg>
