<svg width="21" height="20" viewBox="0 0 21 20" fill="none" xmlns="http://www.w3.org/2000/svg">
<path d="M7.33325 10C7.33325 11.66 8.67325 13 10.3333 13C11.9933 13 13.3333 11.66 13.3333 10C13.3333 8.34 11.9933 7 10.3333 7C8.67325 7 7.33325 8.34 7.33325 10Z" fill="#323232"/>
<path d="M6.33325 7C6.33325 6.45 5.88325 6 5.33325 6H3.42325C4.80325 3.61 7.38325 2 10.3333 2C13.8233 2 16.7833 4.24 17.8733 7.36C18.0133 7.75 18.4033 8 18.8133 8C19.4933 8 19.9933 7.33 19.7733 6.69C18.4033 2.79 14.6933 0 10.3333 0C7.06325 0 4.15325 1.58 2.33325 4.01V3C2.33325 2.45 1.88325 2 1.33325 2C0.783252 2 0.333252 2.45 0.333252 3V7C0.333252 7.55 0.783252 8 1.33325 8H5.33325C5.88325 8 6.33325 7.55 6.33325 7Z" fill="#323232"/>
<path d="M14.3334 13C14.3334 13.55 14.7833 14 15.3334 14H17.2433C15.8633 16.39 13.2833 18 10.3334 18C6.84335 18 3.88335 15.76 2.79335 12.64C2.65335 12.25 2.26335 12 1.85335 12C1.17335 12 0.67335 12.67 0.89335 13.31C2.26335 17.21 5.97335 20 10.3334 20C13.6033 20 16.5133 18.42 18.3333 15.99V17C18.3333 17.55 18.7833 18 19.3333 18C19.8833 18 20.3333 17.55 20.3333 17V13C20.3333 12.45 19.8833 12 19.3333 12H15.3334C14.7833 12 14.3334 12.45 14.3334 13Z" fill="#323232"/>
</svg>
