<svg width="16" height="17" viewBox="0 0 16 17" fill="none" xmlns="http://www.w3.org/2000/svg">
<g id="icons / base-light / paperclip" clip-path="url(#clip0_30_13231)">
<path id="Icon" d="M14.2934 7.50887L8.1667 13.6355C7.41613 14.3861 6.39815 14.8078 5.3367 14.8078C4.27524 14.8078 3.25726 14.3861 2.5067 13.6355C1.75613 12.885 1.33447 11.867 1.33447 10.8055C1.33447 9.74408 1.75613 8.7261 2.5067 7.97553L8.63336 1.84887C9.13374 1.34849 9.81239 1.06738 10.52 1.06738C11.2277 1.06738 11.9063 1.34849 12.4067 1.84887C12.9071 2.34924 13.1882 3.0279 13.1882 3.73553C13.1882 4.44317 12.9071 5.12182 12.4067 5.6222L6.27336 11.7489C6.02318 11.9991 5.68385 12.1396 5.33003 12.1396C4.97621 12.1396 4.63688 11.9991 4.3867 11.7489C4.13651 11.4987 3.99596 11.1594 3.99596 10.8055C3.99596 10.4517 4.13651 10.1124 4.3867 9.8622L10.0467 4.20887" stroke="#98A2B3" stroke-width="1.5" stroke-linecap="round" stroke-linejoin="round"/>
</g>
<defs>
<clipPath id="clip0_30_13231">
<rect width="16" height="16" fill="white" transform="translate(0 0.14209)"/>
</clipPath>
</defs>
</svg>
