<svg width="21" height="20" viewBox="0 0 21 20" fill="none" xmlns="http://www.w3.org/2000/svg">
<g id="vuesax/bold/message">
<g id="message">
<path id="Vector" d="M14.6666 1.6665H6.33329C4.03329 1.6665 2.16663 3.52484 2.16663 5.8165V10.7998V11.6332C2.16663 13.9248 4.03329 15.7832 6.33329 15.7832H7.58329C7.80829 15.7832 8.10829 15.9332 8.24996 16.1165L9.49996 17.7748C10.05 18.5082 10.95 18.5082 11.5 17.7748L12.75 16.1165C12.9083 15.9082 13.1583 15.7832 13.4166 15.7832H14.6666C16.9666 15.7832 18.8333 13.9248 18.8333 11.6332V5.8165C18.8333 3.52484 16.9666 1.6665 14.6666 1.6665ZM7.16663 9.99984C6.69996 9.99984 6.33329 9.62484 6.33329 9.1665C6.33329 8.70817 6.70829 8.33317 7.16663 8.33317C7.62496 8.33317 7.99996 8.70817 7.99996 9.1665C7.99996 9.62484 7.63329 9.99984 7.16663 9.99984ZM10.5 9.99984C10.0333 9.99984 9.66663 9.62484 9.66663 9.1665C9.66663 8.70817 10.0416 8.33317 10.5 8.33317C10.9583 8.33317 11.3333 8.70817 11.3333 9.1665C11.3333 9.62484 10.9666 9.99984 10.5 9.99984ZM13.8333 9.99984C13.3666 9.99984 13 9.62484 13 9.1665C13 8.70817 13.375 8.33317 13.8333 8.33317C14.2916 8.33317 14.6666 8.70817 14.6666 9.1665C14.6666 9.62484 14.3 9.99984 13.8333 9.99984Z" fill="#D0D5DD"/>
</g>
</g>
</svg>
