<svg width="18" height="18" viewBox="0 0 18 18" fill="none" xmlns="http://www.w3.org/2000/svg">
<g id="vuesax/outline/profile-circle">
<g id="profile-circle">
<path id="Vector" d="M9.08998 10.1479C9.07499 10.1479 9.05249 10.1479 9.03749 10.1479C9.01499 10.1479 8.98498 10.1479 8.96249 10.1479C7.25999 10.0954 5.98499 8.76785 5.98499 7.13285C5.98499 5.46785 7.34249 4.11035 9.00749 4.11035C10.6725 4.11035 12.03 5.46785 12.03 7.13285C12.0225 8.77535 10.74 10.0954 9.11248 10.1479C9.09748 10.1479 9.09749 10.1479 9.08998 10.1479ZM8.99998 5.22785C7.94999 5.22785 7.10249 6.08285 7.10249 7.12535C7.10249 8.15285 7.90498 8.98535 8.92498 9.02285C8.94748 9.01535 9.02249 9.01535 9.09749 9.02285C10.1025 8.97035 10.89 8.14535 10.8975 7.12535C10.8975 6.08285 10.05 5.22785 8.99998 5.22785Z" fill="#475467"/>
<path id="Vector_2" d="M9 17.0627C6.9825 17.0627 5.055 16.3127 3.5625 14.9477C3.4275 14.8277 3.3675 14.6477 3.3825 14.4752C3.48 13.5827 4.035 12.7502 4.9575 12.1352C7.1925 10.6502 10.815 10.6502 13.0425 12.1352C13.965 12.7577 14.52 13.5827 14.6175 14.4752C14.64 14.6552 14.5725 14.8277 14.4375 14.9477C12.945 16.3127 11.0175 17.0627 9 17.0627ZM4.56 14.3252C5.805 15.3677 7.3725 15.9377 9 15.9377C10.6275 15.9377 12.195 15.3677 13.44 14.3252C13.305 13.8677 12.945 13.4252 12.4125 13.0652C10.5675 11.8352 7.44 11.8352 5.58 13.0652C5.0475 13.4252 4.695 13.8677 4.56 14.3252Z" fill="#475467"/>
<path id="Vector_3" d="M9 17.0625C4.5525 17.0625 0.9375 13.4475 0.9375 9C0.9375 4.5525 4.5525 0.9375 9 0.9375C13.4475 0.9375 17.0625 4.5525 17.0625 9C17.0625 13.4475 13.4475 17.0625 9 17.0625ZM9 2.0625C5.175 2.0625 2.0625 5.175 2.0625 9C2.0625 12.825 5.175 15.9375 9 15.9375C12.825 15.9375 15.9375 12.825 15.9375 9C15.9375 5.175 12.825 2.0625 9 2.0625Z" fill="#475467"/>
</g>
</g>
</svg>
