<svg width="25" height="24" viewBox="0 0 25 24" fill="none" xmlns="http://www.w3.org/2000/svg">
<path d="M3.33325 8.99998V15H7.33325L12.3333 20V3.99998L7.33325 8.99998H3.33325ZM10.3333 8.82998V15.17L8.16325 13H5.33325V11H8.16325L10.3333 8.82998ZM16.8333 12C16.8333 10.23 15.8133 8.70998 14.3333 7.96998V16.02C15.8133 15.29 16.8333 13.77 16.8333 12ZM14.3333 3.22998V5.28998C17.2233 6.14998 19.3333 8.82998 19.3333 12C19.3333 15.17 17.2233 17.85 14.3333 18.71V20.77C18.3433 19.86 21.3333 16.28 21.3333 12C21.3333 7.71998 18.3433 4.13998 14.3333 3.22998Z" fill="white"/>
</svg>
