<svg width="21" height="20" viewBox="0 0 21 20" fill="none" xmlns="http://www.w3.org/2000/svg">
<g id="vuesax/bold/profile-2user">
<g id="profile-2user">
<path id="Vector" d="M8.00033 1.66675C5.81699 1.66675 4.04199 3.44175 4.04199 5.62508C4.04199 7.76675 5.71699 9.50008 7.90033 9.57508C7.96699 9.56675 8.03366 9.56675 8.08366 9.57508C8.10033 9.57508 8.10866 9.57508 8.12532 9.57508C8.13366 9.57508 8.13366 9.57508 8.14199 9.57508C10.2753 9.50008 11.9503 7.76675 11.9587 5.62508C11.9587 3.44175 10.1837 1.66675 8.00033 1.66675Z" fill="#D0D5DD"/>
<path id="Vector_2" d="M12.2338 11.7917C9.90879 10.2417 6.11712 10.2417 3.77546 11.7917C2.71712 12.5 2.13379 13.4583 2.13379 14.4833C2.13379 15.5083 2.71712 16.4583 3.76712 17.1583C4.93379 17.9417 6.46712 18.3333 8.00046 18.3333C9.53379 18.3333 11.0671 17.9417 12.2338 17.1583C13.2838 16.45 13.8671 15.5 13.8671 14.4667C13.8588 13.4417 13.2838 12.4917 12.2338 11.7917Z" fill="#D0D5DD"/>
<path id="Vector_3" d="M17.1588 6.11659C17.2921 7.73325 16.1421 9.14992 14.5505 9.34159C14.5421 9.34159 14.5421 9.34159 14.5338 9.34159H14.5088C14.4588 9.34159 14.4088 9.34159 14.3671 9.35825C13.5588 9.39992 12.8171 9.14159 12.2588 8.66659C13.1171 7.89992 13.6088 6.74992 13.5088 5.49992C13.4505 4.82492 13.2171 4.20825 12.8671 3.68325C13.1838 3.52492 13.5505 3.42492 13.9255 3.39159C15.5588 3.24992 17.0171 4.46659 17.1588 6.11659Z" fill="#D0D5DD"/>
<path id="Vector_4" d="M18.8249 13.8249C18.7582 14.6333 18.2415 15.3333 17.3749 15.8083C16.5415 16.2666 15.4915 16.4833 14.4499 16.4583C15.0499 15.9166 15.3999 15.2416 15.4665 14.5249C15.5499 13.4916 15.0582 12.4999 14.0749 11.7083C13.5165 11.2666 12.8665 10.9166 12.1582 10.6583C13.9999 10.1249 16.3165 10.4833 17.7415 11.6333C18.5082 12.2499 18.8999 13.0249 18.8249 13.8249Z" fill="#D0D5DD"/>
</g>
</g>
</svg>
