<svg width="18" height="18" viewBox="0 0 18 18" fill="none" xmlns="http://www.w3.org/2000/svg">
<g id="vuesax/linear/briefcase">
<g id="vuesax/linear/briefcase_2">
<g id="briefcase">
<path id="Vector" d="M5.99999 16.5H12C15.015 16.5 15.555 15.2925 15.7125 13.8225L16.275 7.8225C16.4775 5.9925 15.9525 4.5 12.75 4.5H5.24999C2.04749 4.5 1.52249 5.9925 1.72499 7.8225L2.28749 13.8225C2.44499 15.2925 2.98499 16.5 5.99999 16.5Z" stroke="#475467" stroke-miterlimit="10" stroke-linecap="round" stroke-linejoin="round"/>
<path id="Vector_2" d="M6 4.5V3.9C6 2.5725 6 1.5 8.4 1.5H9.6C12 1.5 12 2.5725 12 3.9V4.5" stroke="#475467" stroke-miterlimit="10" stroke-linecap="round" stroke-linejoin="round"/>
<path id="Vector_3" d="M10.5 9.75V10.5C10.5 10.5075 10.5 10.5075 10.5 10.515C10.5 11.3325 10.4925 12 9 12C7.515 12 7.5 11.34 7.5 10.5225V9.75C7.5 9 7.5 9 8.25 9H9.75C10.5 9 10.5 9 10.5 9.75Z" stroke="#475467" stroke-miterlimit="10" stroke-linecap="round" stroke-linejoin="round"/>
<path id="Vector_4" d="M16.2375 8.25C14.505 9.51 12.525 10.26 10.5 10.515" stroke="#475467" stroke-miterlimit="10" stroke-linecap="round" stroke-linejoin="round"/>
<path id="Vector_5" d="M1.96503 8.45215C3.65253 9.60715 5.55753 10.3046 7.50003 10.5221" stroke="#475467" stroke-miterlimit="10" stroke-linecap="round" stroke-linejoin="round"/>
</g>
</g>
</g>
</svg>
